<svg width="97" height="25" viewBox="0 0 97 25" fill="none" xmlns="http://www.w3.org/2000/svg">
<path d="M2.684 1.00613H14.084V3.57413H5.564V8.23013H13.268V10.7981H5.564V15.7181H14.084V18.2861H2.684V1.00613ZM35.8455 1.00613H48.7335V3.57413H43.7415V18.2861H40.8615V3.57413H35.8455V1.00613ZM50.2621 1.00613H61.6621V3.57413H53.1421V8.23013H60.8461V10.7981H53.1421V15.7181H61.6621V18.2861H50.2621V1.00613ZM71.9483 18.7181C66.6443 18.7901 62.8283 14.5901 62.9243 9.64613C62.8283 4.72613 66.6443 0.502131 71.9483 0.574132C73.6523 0.574132 75.2363 0.958131 76.7483 1.72613V4.75013C75.3323 3.81413 73.7723 3.35813 72.0923 3.35813C68.2523 3.35813 65.9243 6.19013 65.9243 9.64613C65.9243 13.1021 68.2763 15.9341 72.0923 15.9341C73.7723 15.9341 75.3323 15.4781 76.7483 14.5421V17.5661C75.2363 18.3341 73.6523 18.7181 71.9483 18.7181ZM90.7425 8.37413V1.00613H93.6225V18.2861H90.7425V10.9181H82.1265V18.2861H79.2465V1.00613H82.1265V8.37413H90.7425Z" fill="#FFFFFF"/>
<path d="M33.5543 0.670132H33.6023L34.7303 18.2861H31.8743L31.2743 8.59013H31.2263L25.5383 17.2541H25.4663L19.7783 8.59013H19.7303L19.1063 18.2861H16.2503L17.3783 0.670132H17.4263L25.4903 12.9821L33.5543 0.670132Z" fill="#C0933E"/>
</svg>