<svg width="377" height="290" viewBox="0 0 377 290" fill="none" xmlns="http://www.w3.org/2000/svg">
<g filter="url(#filter0_d_11131_40586)">
<path d="M196.129 21.5681H62.0416C60.1892 21.5681 58.6875 23.0698 58.6875 24.9222V97.9673M58.6875 130.439V97.9673M58.6875 97.9673H86.839C88.6914 97.9673 90.1931 96.4656 90.1931 94.6132V86.8956M146.902 47.1658V70.9846C146.902 72.837 145.4 74.3387 143.548 74.3387H122.295C120.443 74.3387 118.941 75.8404 118.941 77.6928V89.3035M176.437 70.7944V94.6132C176.437 96.4656 174.936 97.9673 173.083 97.9673H146.902H231.367C233.22 97.9673 234.721 99.469 234.721 101.321V169.831C234.721 171.683 233.22 173.185 231.367 173.185H176.831M118.941 173.185H147.886M176.831 173.185L176.437 146.406M176.831 173.185H147.886M147.886 173.185V196.61C147.886 198.462 149.388 199.964 151.24 199.964H266.226H179.792C177.939 199.964 176.437 201.466 176.437 203.318V223.199M90.1931 248.009H147.886M264.257 249.584V226.553C264.257 224.701 262.755 223.199 260.903 223.199H210.115C208.263 223.199 206.761 224.701 206.761 226.553V244.655C206.761 246.507 205.259 248.009 203.407 248.009H147.886M351.289 247.669V270.646C351.289 272.499 349.787 274 347.935 274H234.721H62.0416C60.1892 274 58.6875 272.499 58.6875 270.646V226.553C58.6875 224.701 60.1892 223.199 62.0416 223.199H86.839C88.6914 223.199 90.1931 221.697 90.1931 219.845V201.349C90.1931 199.497 91.6948 197.995 93.5472 197.995H115.587C117.44 197.995 118.941 199.497 118.941 201.349V219.845C118.941 221.697 120.443 223.199 122.295 223.199H144.532C146.385 223.199 147.886 224.701 147.886 226.553V248.009M121.445 123.095H146.902M146.902 123.095V148.817M146.902 123.095H159.336M146.943 148.817H120.317M262.918 124.9V101.178C262.918 99.3254 264.42 97.8237 266.272 97.8237H292.025M292.025 97.8237V72.7782M292.025 97.8237V122.869M292.025 122.869V153.781M292.025 122.869H322.035M322.035 81.9623V95.3722C322.035 97.2246 323.536 98.7263 325.389 98.7263H347.562C349.414 98.7263 350.916 100.228 350.916 102.08V147.915M350.916 147.915V166.191M350.916 147.915H320.004M350.916 72.7782V26.267C350.916 24.4146 349.414 22.9129 347.562 22.9129H270.287M234.939 147.915H259.564C261.416 147.915 262.918 149.416 262.918 151.269V172.735M324.968 248.548H295.83C293.978 248.548 292.476 247.046 292.476 245.194V223.502M176.212 21.4004V37.6895" stroke="#FCE9A7" stroke-width="0.670822" stroke-linecap="round" stroke-linejoin="round"/>
</g>
<path d="M101.87 160.051V113.804C101.87 111.951 103.371 110.45 105.224 110.45H129.427C131.279 110.45 132.781 108.948 132.781 107.096V89.3626C132.781 87.5102 134.283 86.0085 136.135 86.0085H159.619C161.472 86.0085 162.973 84.5068 162.973 82.6544V59.8893C162.973 58.0368 164.475 56.5352 166.327 56.5352H186.216C188.069 56.5352 189.57 58.0368 189.57 59.8893V82.6544C189.57 84.5068 191.072 86.0085 192.924 86.0085H230.825M101.87 160.051V181.139C101.87 182.991 103.371 184.493 105.224 184.493H129.427C131.279 184.493 132.781 185.994 132.781 187.847V209.893C132.781 211.745 134.283 213.247 136.135 213.247H159.619C161.472 213.247 162.973 214.749 162.973 216.601V228.583C162.973 230.436 164.475 231.938 166.327 231.938H186.216C188.069 231.938 189.57 230.436 189.57 228.583V216.601C189.57 214.749 191.072 213.247 192.924 213.247H288.294C290.147 213.247 291.649 211.745 291.649 209.893V193.838M101.87 160.051H91.0859M291.649 193.838V177.783C291.649 175.93 290.147 174.429 288.294 174.429H278.469C276.616 174.429 275.115 172.927 275.115 171.074V140.402C275.115 138.549 273.613 137.048 271.761 137.048H254.028C252.175 137.048 250.673 135.546 250.673 133.694V89.3626C250.673 87.5102 249.172 86.0085 247.319 86.0085H230.825M291.649 193.838H301.978M230.825 86.0085V76.8717" stroke="#66CCFF" stroke-opacity="0.6" stroke-width="6.0374" stroke-linecap="round" stroke-linejoin="round"/>
<circle cx="225.838" cy="213.144" r="2.99028" transform="rotate(-180 225.838 213.144)" fill="#66CCFF" fill-opacity="0.2"/>
<circle cx="217.174" cy="213.144" r="2.99028" transform="rotate(-180 217.174 213.144)" fill="#66CCFF" fill-opacity="0.6"/>
<circle cx="208.51" cy="213.144" r="2.99028" transform="rotate(-180 208.51 213.144)" fill="#66CCFF"/>
<circle cx="275.154" cy="163.223" r="2.99028" transform="rotate(-90 275.154 163.223)" fill="#66CCFF" fill-opacity="0.2"/>
<circle cx="275.154" cy="154.561" r="2.99028" transform="rotate(-90 275.154 154.561)" fill="#66CCFF" fill-opacity="0.6"/>
<circle cx="275.154" cy="145.896" r="2.99028" transform="rotate(-90 275.154 145.896)" fill="#66CCFF"/>
<circle cx="102.303" cy="145.799" r="2.99028" transform="rotate(-90 102.303 145.799)" fill="#66CCFF" fill-opacity="0.2"/>
<circle cx="102.303" cy="137.137" r="2.99028" transform="rotate(-90 102.303 137.137)" fill="#66CCFF" fill-opacity="0.6"/>
<circle cx="102.303" cy="128.473" r="2.99028" transform="rotate(-90 102.303 128.473)" fill="#66CCFF"/>
<circle cx="139.623" cy="85.9297" r="2.99028" fill="#66CCFF" fill-opacity="0.2"/>
<circle cx="148.287" cy="85.9297" r="2.99028" fill="#66CCFF" fill-opacity="0.6"/>
<circle cx="156.951" cy="85.9297" r="2.99028" fill="#66CCFF"/>
<circle cx="260.306" cy="172.333" r="3.46237" fill="#FEECA8"/>
<path d="M38.4263 143.877C39.9292 142.726 42.0183 142.726 43.5212 143.877L61.3625 157.515C63.6349 159.251 62.416 162.876 59.5611 162.89H22.3828C19.5315 162.876 18.309 159.251 20.585 157.515L38.4263 143.877ZM40.972 156.598C41.6872 156.598 42.3731 156.314 42.8788 155.808C43.3845 155.302 43.6686 154.616 43.6686 153.901C43.6686 153.186 43.3845 152.5 42.8788 151.994C42.3731 151.489 41.6872 151.204 40.972 151.204C40.2567 151.204 39.5708 151.489 39.0651 151.994C38.5594 152.5 38.2753 153.186 38.2753 153.901C38.2753 154.616 38.5594 155.302 39.0651 155.808C39.5708 156.314 40.2567 156.598 40.972 156.598ZM24.7918 166.486V177.272H30.1852V166.486H24.7918ZM33.7808 166.486V177.272H39.1742V166.486H33.7808ZM42.7697 166.486V177.272H48.1631V166.486H42.7697ZM51.7587 166.486V177.272H57.1521V166.486H51.7587ZM19.3984 185.362C19.3984 182.882 21.412 180.868 23.8929 180.868H58.051C60.5319 180.868 62.5455 182.882 62.5455 185.362V186.261C62.5455 186.738 62.3561 187.195 62.0189 187.533C61.6818 187.87 61.2245 188.059 60.7477 188.059H21.1962C20.7194 188.059 20.2622 187.87 19.925 187.533C19.5878 187.195 19.3984 186.738 19.3984 186.261V185.362Z" fill="#66CCFF"/>
<path d="M1.27616 207.704C1.27616 206.921 1.44722 206.221 1.78934 205.606C2.13146 204.982 2.59902 204.499 3.19203 204.157C3.78503 203.808 4.44646 203.633 5.17632 203.633C6.06583 203.633 6.82609 203.846 7.45711 204.271C8.09574 204.689 8.5595 205.282 8.8484 206.05H7.91327C7.68519 205.511 7.33547 205.089 6.86411 204.785C6.40035 204.48 5.83775 204.328 5.17632 204.328C4.59091 204.328 4.06253 204.465 3.59117 204.739C3.1274 205.013 2.76248 205.408 2.49638 205.925C2.23029 206.434 2.09724 207.027 2.09724 207.704C2.09724 208.381 2.23029 208.974 2.49638 209.483C2.76248 209.992 3.1274 210.384 3.59117 210.658C4.06253 210.931 4.59091 211.068 5.17632 211.068C5.83775 211.068 6.40035 210.92 6.86411 210.623C7.33547 210.319 7.68519 209.901 7.91327 209.369H8.8484C8.5595 210.129 8.09574 210.718 7.45711 211.137C6.81849 211.555 6.05823 211.764 5.17632 211.764C4.44646 211.764 3.78503 211.593 3.19203 211.251C2.59902 210.901 2.13146 210.418 1.78934 209.802C1.44722 209.186 1.27616 208.487 1.27616 207.704ZM16.0726 208.263C16.0726 208.536 16.065 208.745 16.0498 208.89H10.8838C10.9066 209.361 11.0207 209.764 11.226 210.099C11.4312 210.433 11.7011 210.688 12.0356 210.863C12.3701 211.03 12.7351 211.114 13.1304 211.114C13.6474 211.114 14.0807 210.988 14.4305 210.737C14.7878 210.486 15.0235 210.148 15.1375 209.722H15.9814C15.8294 210.331 15.5024 210.829 15.0007 211.216C14.5065 211.596 13.8831 211.787 13.1304 211.787C12.545 211.787 12.0204 211.657 11.5567 211.399C11.0929 211.133 10.728 210.76 10.4619 210.281C10.2034 209.795 10.0741 209.228 10.0741 208.582C10.0741 207.936 10.2034 207.369 10.4619 206.883C10.7204 206.396 11.0815 206.024 11.5453 205.765C12.009 205.507 12.5374 205.378 13.1304 205.378C13.7234 205.378 14.2404 205.507 14.6814 205.765C15.1299 206.024 15.472 206.373 15.7077 206.814C15.951 207.248 16.0726 207.731 16.0726 208.263ZM15.263 208.24C15.2706 207.776 15.1755 207.381 14.9779 207.054C14.7878 206.727 14.5255 206.48 14.191 206.313C13.8565 206.145 13.4915 206.062 13.0962 206.062C12.5032 206.062 11.9976 206.252 11.5795 206.632C11.1613 207.012 10.9294 207.548 10.8838 208.24H15.263ZM20.4526 205.355C21.1976 205.355 21.8058 205.587 22.2772 206.05C22.7486 206.507 22.9843 207.172 22.9843 208.046V211.695H22.1974V208.137C22.1974 207.461 22.0263 206.944 21.6842 206.586C21.3497 206.229 20.8897 206.05 20.3043 206.05C19.7037 206.05 19.2247 206.24 18.8674 206.621C18.5101 207.001 18.3314 207.559 18.3314 208.297V211.695H17.5332V205.469H18.3314V206.529C18.5291 206.149 18.8142 205.86 19.1867 205.663C19.5593 205.457 19.9812 205.355 20.4526 205.355ZM25.7875 206.142V210.008C25.7875 210.388 25.8597 210.65 26.0042 210.794C26.1486 210.939 26.4033 211.011 26.7682 211.011H27.4981V211.695H26.6428C26.0802 211.695 25.6621 211.566 25.3884 211.308C25.1147 211.041 24.9778 210.608 24.9778 210.008V206.142H24.1111V205.469H24.9778V203.906H25.7875V205.469H27.4981V206.142H25.7875ZM29.6129 206.575C29.7878 206.187 30.0539 205.887 30.4112 205.674C30.7761 205.461 31.2209 205.355 31.7454 205.355V206.187H31.5288C30.951 206.187 30.4872 206.343 30.1375 206.655C29.7878 206.966 29.6129 207.487 29.6129 208.217V211.695H28.8146V205.469H29.6129V206.575ZM32.5814 208.571C32.5814 207.932 32.7069 207.373 32.9577 206.894C33.2162 206.408 33.5698 206.035 34.0183 205.777C34.4745 205.511 34.9877 205.378 35.5579 205.378C36.1509 205.378 36.6602 205.514 37.086 205.788C37.5193 206.062 37.831 206.411 38.0211 206.837V205.469H38.8194V211.695H38.0211V210.315C37.8234 210.741 37.5079 211.095 37.0746 211.376C36.6488 211.65 36.1395 211.787 35.5464 211.787C34.9839 211.787 34.4745 211.653 34.0183 211.387C33.5698 211.121 33.2162 210.745 32.9577 210.258C32.7069 209.772 32.5814 209.209 32.5814 208.571ZM38.0211 208.582C38.0211 208.08 37.9185 207.639 37.7132 207.259C37.5079 206.879 37.2266 206.586 36.8693 206.381C36.5196 206.176 36.1319 206.073 35.7061 206.073C35.2651 206.073 34.8698 206.172 34.5201 206.37C34.1704 206.567 33.8929 206.856 33.6876 207.236C33.4899 207.609 33.3911 208.054 33.3911 208.571C33.3911 209.08 33.4899 209.529 33.6876 209.916C33.8929 210.296 34.1704 210.589 34.5201 210.794C34.8698 210.992 35.2651 211.091 35.7061 211.091C36.1319 211.091 36.5196 210.988 36.8693 210.783C37.2266 210.578 37.5079 210.285 37.7132 209.905C37.9185 209.525 38.0211 209.084 38.0211 208.582ZM41.4401 203.256V211.695H40.6418V203.256H41.4401ZM47.1641 206.849C47.3693 206.415 47.6849 206.062 48.1106 205.788C48.544 205.514 49.0533 205.378 49.6387 205.378C50.2089 205.378 50.7183 205.511 51.1669 205.777C51.6154 206.035 51.9651 206.408 52.216 206.894C52.4745 207.373 52.6038 207.932 52.6038 208.571C52.6038 209.209 52.4745 209.772 52.216 210.258C51.9651 210.745 51.6116 211.121 51.1555 211.387C50.7069 211.653 50.2013 211.787 49.6387 211.787C49.0457 211.787 48.5325 211.653 48.0992 211.387C47.6734 211.114 47.3617 210.76 47.1641 210.327V211.695H46.3772V203.256H47.1641V206.849ZM51.7941 208.571C51.7941 208.054 51.6914 207.609 51.4862 207.236C51.2885 206.856 51.0148 206.567 50.6651 206.37C50.3154 206.172 49.92 206.073 49.4791 206.073C49.0533 206.073 48.6618 206.176 48.3045 206.381C47.9547 206.586 47.6772 206.879 47.472 207.259C47.2667 207.639 47.1641 208.08 47.1641 208.582C47.1641 209.084 47.2667 209.525 47.472 209.905C47.6772 210.285 47.9547 210.578 48.3045 210.783C48.6618 210.988 49.0533 211.091 49.4791 211.091C49.92 211.091 50.3154 210.992 50.6651 210.794C51.0148 210.589 51.2885 210.296 51.4862 209.916C51.6914 209.529 51.7941 209.08 51.7941 208.571ZM53.7077 208.571C53.7077 207.932 53.8332 207.373 54.0841 206.894C54.3425 206.408 54.6961 206.035 55.1446 205.777C55.6008 205.511 56.114 205.378 56.6842 205.378C57.2772 205.378 57.7865 205.514 58.2123 205.788C58.6456 206.062 58.9574 206.411 59.1474 206.837V205.469H59.9457V211.695H59.1474V210.315C58.9498 210.741 58.6342 211.095 58.2009 211.376C57.7751 211.65 57.2658 211.787 56.6728 211.787C56.1102 211.787 55.6008 211.653 55.1446 211.387C54.6961 211.121 54.3425 210.745 54.0841 210.258C53.8332 209.772 53.7077 209.209 53.7077 208.571ZM59.1474 208.582C59.1474 208.08 59.0448 207.639 58.8395 207.259C58.6342 206.879 58.3529 206.586 57.9956 206.381C57.6459 206.176 57.2582 206.073 56.8324 206.073C56.3915 206.073 55.9961 206.172 55.6464 206.37C55.2967 206.567 55.0192 206.856 54.8139 207.236C54.6162 207.609 54.5174 208.054 54.5174 208.571C54.5174 209.08 54.6162 209.529 54.8139 209.916C55.0192 210.296 55.2967 210.589 55.6464 210.794C55.9961 210.992 56.3915 211.091 56.8324 211.091C57.2582 211.091 57.6459 210.988 57.9956 210.783C58.3529 210.578 58.6342 210.285 58.8395 209.905C59.0448 209.525 59.1474 209.084 59.1474 208.582ZM64.6875 205.355C65.4326 205.355 66.0408 205.587 66.5122 206.05C66.9835 206.507 67.2192 207.172 67.2192 208.046V211.695H66.4323V208.137C66.4323 207.461 66.2613 206.944 65.9192 206.586C65.5846 206.229 65.1247 206.05 64.5393 206.05C63.9387 206.05 63.4597 206.24 63.1024 206.621C62.7451 207.001 62.5664 207.559 62.5664 208.297V211.695H61.7681V205.469H62.5664V206.529C62.7641 206.149 63.0492 205.86 63.4217 205.663C63.7942 205.457 64.2162 205.355 64.6875 205.355ZM72.3489 211.695L69.783 208.901V211.695H68.9847V203.256H69.783V208.251L72.2918 205.469H73.4094L70.4558 208.571L73.4322 211.695H72.3489ZM76.6079 211.787C75.8932 211.787 75.3078 211.623 74.8517 211.296C74.4031 210.962 74.1522 210.509 74.099 209.939H74.9201C74.9581 210.289 75.1216 210.574 75.4105 210.794C75.707 211.007 76.1023 211.114 76.5965 211.114C77.0298 211.114 77.3682 211.011 77.6114 210.806C77.8623 210.601 77.9878 210.346 77.9878 210.042C77.9878 209.829 77.9194 209.654 77.7825 209.517C77.6457 209.38 77.4708 209.274 77.2579 209.198C77.0526 209.114 76.7714 209.027 76.414 208.936C75.9503 208.814 75.5739 208.692 75.285 208.571C74.9961 208.449 74.749 208.27 74.5438 208.035C74.3461 207.791 74.2473 207.468 74.2473 207.065C74.2473 206.761 74.3385 206.48 74.521 206.221C74.7034 205.963 74.9619 205.758 75.2964 205.606C75.631 205.454 76.0111 205.378 76.4368 205.378C77.1059 205.378 77.6457 205.549 78.0562 205.891C78.4667 206.225 78.6872 206.689 78.7176 207.282H77.9194C77.8965 206.917 77.7521 206.624 77.486 206.404C77.2275 206.176 76.8702 206.062 76.414 206.062C76.0111 206.062 75.6842 206.157 75.4333 206.347C75.1824 206.537 75.057 206.773 75.057 207.054C75.057 207.297 75.1292 207.499 75.2736 207.658C75.4257 207.81 75.6119 207.932 75.8324 208.023C76.0529 208.107 76.3494 208.202 76.7219 208.308C77.1705 208.43 77.5278 208.548 77.7939 208.662C78.06 208.776 78.2881 208.943 78.4781 209.164C78.6682 209.384 78.767 209.677 78.7747 210.042C78.7747 210.376 78.6834 210.677 78.501 210.943C78.3185 211.201 78.0638 211.406 77.7369 211.558C77.41 211.711 77.0336 211.787 76.6079 211.787Z" fill="#FEECA8"/>
<circle cx="234.642" cy="33.1325" r="13.1735" fill="#66CCFF"/>
<circle cx="229.123" cy="28.0506" r="2.16977" fill="#1C374D"/>
<circle cx="240.162" cy="31.1952" r="2.16977" fill="#1C374D"/>
<circle cx="240.162" cy="38.119" r="2.16977" fill="#1C374D"/>
<circle cx="230.623" cy="34.9413" r="2.16977" fill="#1C374D"/>
<circle cx="236.646" cy="25.3631" r="2.16977" fill="#1C374D"/>
<circle cx="232.795" cy="40.9002" r="2.16977" fill="#1C374D"/>
<path fill-rule="evenodd" clip-rule="evenodd" d="M232.699 30.5253C232.189 30.5253 231.709 30.2811 231.409 29.8683L230.96 29.2509C230.69 28.8793 230.169 28.7972 229.798 29.0674C229.426 29.3376 229.344 29.8579 229.614 30.2295L230.79 31.8464C230.947 32.0617 231.197 32.189 231.463 32.189H237.5C237.96 32.189 238.332 31.8166 238.332 31.3571C238.332 30.8977 237.96 30.5253 237.5 30.5253H232.699ZM231.949 34.8958C231.949 34.4364 232.321 34.0639 232.781 34.0639H237.43C237.691 34.0639 237.936 34.1859 238.093 34.3935L239.326 36.0201C239.603 36.3863 239.531 36.9081 239.165 37.1856C238.799 37.463 238.277 37.391 237.999 37.0248L237.51 36.3785C237.199 35.9685 236.715 35.7277 236.2 35.7277H232.781C232.321 35.7277 231.949 35.3552 231.949 34.8958Z" fill="#1C374D"/>
<mask id="path-26-inside-1_11131_40586" fill="white">
<path d="M250.584 44.1361C250.714 44.2255 250.892 44.1931 250.979 44.0623C253.645 40.0798 254.765 35.2571 254.123 30.5015C253.481 25.7459 251.123 21.3929 247.497 18.2596C247.377 18.1567 247.197 18.1725 247.096 18.2931C246.995 18.4137 247.011 18.5933 247.13 18.6963C250.647 21.7383 252.936 25.9628 253.559 30.5778C254.181 35.1927 253.095 39.8727 250.51 43.7384C250.423 43.8692 250.455 44.0467 250.584 44.1361Z"/>
</mask>
<path d="M250.584 44.1361C250.714 44.2255 250.892 44.1931 250.979 44.0623C253.645 40.0798 254.765 35.2571 254.123 30.5015C253.481 25.7459 251.123 21.3929 247.497 18.2596C247.377 18.1567 247.197 18.1725 247.096 18.2931C246.995 18.4137 247.011 18.5933 247.13 18.6963C250.647 21.7383 252.936 25.9628 253.559 30.5778C254.181 35.1927 253.095 39.8727 250.51 43.7384C250.423 43.8692 250.455 44.0467 250.584 44.1361Z" stroke="#66CCFF" stroke-width="2.68329" mask="url(#path-26-inside-1_11131_40586)"/>
<mask id="path-27-inside-2_11131_40586" fill="white">
<path d="M243.019 15.6656C243.087 15.5233 243.027 15.3524 242.884 15.2863C240.309 14.0977 237.507 13.4799 234.669 13.4766C231.736 13.4732 228.839 14.1263 226.191 15.3882C223.543 16.65 221.211 18.4886 219.366 20.769C217.581 22.9753 216.296 25.541 215.598 28.2893C215.559 28.4423 215.654 28.5965 215.807 28.6331C215.961 28.6698 216.115 28.575 216.154 28.422C216.832 25.7567 218.079 23.2684 219.811 21.1284C221.602 18.9143 223.866 17.1292 226.437 15.9041C229.008 14.6789 231.82 14.0447 234.668 14.048C237.421 14.0512 240.139 14.6499 242.637 15.8016C242.78 15.8677 242.951 15.8079 243.019 15.6656Z"/>
</mask>
<path d="M243.019 15.6656C243.087 15.5233 243.027 15.3524 242.884 15.2863C240.309 14.0977 237.507 13.4799 234.669 13.4766C231.736 13.4732 228.839 14.1263 226.191 15.3882C223.543 16.65 221.211 18.4886 219.366 20.769C217.581 22.9753 216.296 25.541 215.598 28.2893C215.559 28.4423 215.654 28.5965 215.807 28.6331C215.961 28.6698 216.115 28.575 216.154 28.422C216.832 25.7567 218.079 23.2684 219.811 21.1284C221.602 18.9143 223.866 17.1292 226.437 15.9041C229.008 14.6789 231.82 14.0447 234.668 14.048C237.421 14.0512 240.139 14.6499 242.637 15.8016C242.78 15.8677 242.951 15.8079 243.019 15.6656Z" stroke="#66CCFF" stroke-width="2.68329" mask="url(#path-27-inside-2_11131_40586)"/>
<mask id="path-28-inside-3_11131_40586" fill="white">
<path d="M215.331 31.7041C215.174 31.6925 215.036 31.8111 215.027 31.9691C214.795 35.8779 215.737 39.7692 217.733 43.1424C219.779 46.5979 222.834 49.3439 226.487 51.0109C230.141 52.6779 234.217 53.1858 238.167 52.4663C242.024 51.764 245.58 49.9249 248.381 47.1885C248.494 47.0779 248.494 46.8962 248.381 46.7846C248.269 46.673 248.088 46.6737 247.974 46.7843C245.256 49.4377 241.806 51.221 238.065 51.9023C234.229 52.6008 230.272 52.1077 226.725 50.4894C223.179 48.871 220.213 46.2051 218.227 42.8504C216.29 39.578 215.375 35.8033 215.598 32.0113C215.608 31.8533 215.489 31.7158 215.331 31.7041Z"/>
</mask>
<path d="M215.331 31.7041C215.174 31.6925 215.036 31.8111 215.027 31.9691C214.795 35.8779 215.737 39.7692 217.733 43.1424C219.779 46.5979 222.834 49.3439 226.487 51.0109C230.141 52.6779 234.217 53.1858 238.167 52.4663C242.024 51.764 245.58 49.9249 248.381 47.1885C248.494 47.0779 248.494 46.8962 248.381 46.7846C248.269 46.673 248.088 46.6737 247.974 46.7843C245.256 49.4377 241.806 51.221 238.065 51.9023C234.229 52.6008 230.272 52.1077 226.725 50.4894C223.179 48.871 220.213 46.2051 218.227 42.8504C216.29 39.578 215.375 35.8033 215.598 32.0113C215.608 31.8533 215.489 31.7158 215.331 31.7041Z" stroke="#66CCFF" stroke-width="2.68329" mask="url(#path-28-inside-3_11131_40586)"/>
<mask id="path-29-inside-4_11131_40586" fill="white">
<path d="M232.709 57.0651C232.699 57.1981 232.798 57.3148 232.931 57.3242C238.869 57.7452 244.758 55.9674 249.473 52.3247C254.189 48.6819 257.396 43.4327 258.488 37.5808C258.512 37.4497 258.425 37.3242 258.293 37.301C258.162 37.2778 258.037 37.3658 258.012 37.4969C256.941 43.2303 253.798 48.3731 249.178 51.9423C244.558 55.5115 238.788 57.2539 232.97 56.8426C232.837 56.8332 232.72 56.9321 232.709 57.0651Z"/>
</mask>
<path d="M232.709 57.0651C232.699 57.1981 232.798 57.3148 232.931 57.3242C238.869 57.7452 244.758 55.9674 249.473 52.3247C254.189 48.6819 257.396 43.4327 258.488 37.5808C258.512 37.4497 258.425 37.3242 258.293 37.301C258.162 37.2778 258.037 37.3658 258.012 37.4969C256.941 43.2303 253.798 48.3731 249.178 51.9423C244.558 55.5115 238.788 57.2539 232.97 56.8426C232.837 56.8332 232.72 56.9321 232.709 57.0651Z" stroke="#66CCFF" stroke-width="2.68329" mask="url(#path-29-inside-4_11131_40586)"/>
<mask id="path-30-inside-5_11131_40586" fill="white">
<path d="M258.589 31.2945C258.721 31.2843 258.821 31.1688 258.809 31.0366C258.504 27.5122 257.431 24.0962 255.664 21.0288C253.858 17.8919 251.373 15.1991 248.39 13.1479C245.408 11.0966 242.004 9.7389 238.429 9.17432C234.933 8.62223 231.359 8.84223 227.958 9.81767C227.831 9.85426 227.759 9.98817 227.796 10.1154C227.834 10.2425 227.968 10.3148 228.096 10.2783C231.427 9.32327 234.929 9.10807 238.354 9.64898C241.859 10.2024 245.195 11.5332 248.118 13.5438C251.041 15.5544 253.478 18.1939 255.248 21.2686C256.978 24.2738 258.03 27.6204 258.33 31.0733C258.341 31.2055 258.457 31.3046 258.589 31.2945Z"/>
</mask>
<path d="M258.589 31.2945C258.721 31.2843 258.821 31.1688 258.809 31.0366C258.504 27.5122 257.431 24.0962 255.664 21.0288C253.858 17.8919 251.373 15.1991 248.39 13.1479C245.408 11.0966 242.004 9.7389 238.429 9.17432C234.933 8.62223 231.359 8.84223 227.958 9.81767C227.831 9.85426 227.759 9.98817 227.796 10.1154C227.834 10.2425 227.968 10.3148 228.096 10.2783C231.427 9.32327 234.929 9.10807 238.354 9.64898C241.859 10.2024 245.195 11.5332 248.118 13.5438C251.041 15.5544 253.478 18.1939 255.248 21.2686C256.978 24.2738 258.03 27.6204 258.33 31.0733C258.341 31.2055 258.457 31.3046 258.589 31.2945Z" stroke="#66CCFF" stroke-width="2.68329" mask="url(#path-30-inside-5_11131_40586)"/>
<mask id="path-31-inside-6_11131_40586" fill="white">
<path d="M224.204 11.5093C224.146 11.3886 224.001 11.338 223.881 11.3974C219.516 13.5593 215.902 16.9863 213.511 21.2341C211.08 25.5524 210.03 30.5116 210.503 35.4444C210.975 40.3773 212.948 45.047 216.154 48.8251C219.308 52.5415 223.508 55.2199 228.204 56.5136C228.333 56.5492 228.466 56.4719 228.5 56.3424C228.534 56.2129 228.457 56.0801 228.328 56.0445C223.728 54.7762 219.614 52.152 216.524 48.5111C213.382 44.8086 211.449 40.2323 210.986 35.3982C210.523 30.564 211.551 25.704 213.934 21.4721C216.276 17.3108 219.817 13.9532 224.092 11.8344C224.212 11.7749 224.263 11.63 224.204 11.5093Z"/>
</mask>
<path d="M224.204 11.5093C224.146 11.3886 224.001 11.338 223.881 11.3974C219.516 13.5593 215.902 16.9863 213.511 21.2341C211.08 25.5524 210.03 30.5116 210.503 35.4444C210.975 40.3773 212.948 45.047 216.154 48.8251C219.308 52.5415 223.508 55.2199 228.204 56.5136C228.333 56.5492 228.466 56.4719 228.5 56.3424C228.534 56.2129 228.457 56.0801 228.328 56.0445C223.728 54.7762 219.614 52.152 216.524 48.5111C213.382 44.8086 211.449 40.2323 210.986 35.3982C210.523 30.564 211.551 25.704 213.934 21.4721C216.276 17.3108 219.817 13.9532 224.092 11.8344C224.212 11.7749 224.263 11.63 224.204 11.5093Z" stroke="#66CCFF" stroke-width="2.68329" mask="url(#path-31-inside-6_11131_40586)"/>
<path d="M215.908 61.5696V62.2311H212.396V65.2075H215.361V65.8689H212.396V69.541H211.598V61.5696H215.908ZM217.621 62.1398C217.461 62.1398 217.324 62.0828 217.21 61.9688C217.096 61.8547 217.039 61.7141 217.039 61.5468C217.039 61.3796 217.096 61.2427 217.21 61.1363C217.324 61.0222 217.461 60.9652 217.621 60.9652C217.78 60.9652 217.917 61.0222 218.031 61.1363C218.145 61.2427 218.202 61.3796 218.202 61.5468C218.202 61.7141 218.145 61.8547 218.031 61.9688C217.917 62.0828 217.78 62.1398 217.621 62.1398ZM218.02 63.3144V69.541H217.222V63.3144H218.02ZM222.747 63.2004C223.492 63.2004 224.1 63.4323 224.572 63.896C225.043 64.3522 225.279 65.0174 225.279 65.8917V69.541H224.492V65.983C224.492 65.3063 224.321 64.7894 223.979 64.432C223.644 64.0747 223.184 63.896 222.599 63.896C221.998 63.896 221.519 64.0861 221.162 64.4662C220.805 64.8464 220.626 65.4052 220.626 66.1426V69.541H219.828V63.3144H220.626V64.375C220.824 63.9949 221.109 63.706 221.481 63.5083C221.854 63.303 222.276 63.2004 222.747 63.2004ZM228.082 63.9873V67.8532C228.082 68.2334 228.154 68.4957 228.299 68.6401C228.443 68.7846 228.698 68.8568 229.063 68.8568H229.793V69.541H228.937C228.375 69.541 227.957 69.4118 227.683 69.1533C227.409 68.8872 227.272 68.4538 227.272 67.8532V63.9873H226.406V63.3144H227.272V61.7521H228.082V63.3144H229.793V63.9873H228.082ZM236.743 66.1084C236.743 66.3821 236.735 66.5912 236.72 66.7356H231.554C231.577 67.207 231.691 67.6099 231.896 67.9445C232.101 68.279 232.371 68.5337 232.706 68.7085C233.04 68.8758 233.405 68.9594 233.8 68.9594C234.317 68.9594 234.751 68.834 235.101 68.5831C235.458 68.3322 235.694 67.9939 235.808 67.5681H236.651C236.499 68.1763 236.173 68.6743 235.671 69.062C235.177 69.4422 234.553 69.6322 233.8 69.6322C233.215 69.6322 232.69 69.503 232.227 69.2445C231.763 68.9784 231.398 68.6059 231.132 68.1269C230.873 67.6404 230.744 67.074 230.744 66.4277C230.744 65.7815 230.873 65.2151 231.132 64.7285C231.39 64.242 231.752 63.8694 232.215 63.6109C232.679 63.3525 233.207 63.2232 233.8 63.2232C234.393 63.2232 234.91 63.3525 235.351 63.6109C235.8 63.8694 236.142 64.2192 236.378 64.6601C236.621 65.0935 236.743 65.5762 236.743 66.1084ZM235.933 66.0856C235.941 65.6218 235.846 65.2265 235.648 64.8996C235.458 64.5727 235.196 64.3256 234.861 64.1583C234.527 63.9911 234.162 63.9075 233.766 63.9075C233.173 63.9075 232.668 64.0975 232.25 64.4776C231.831 64.8578 231.6 65.3938 231.554 66.0856H235.933ZM237.838 66.4277C237.838 65.7815 237.968 65.2189 238.226 64.7399C238.485 64.2534 238.842 63.8808 239.298 63.6224C239.754 63.3563 240.275 63.2232 240.86 63.2232C241.628 63.2232 242.259 63.4133 242.753 63.7934C243.255 64.1735 243.578 64.6905 243.723 65.3444H242.867C242.761 64.8958 242.529 64.5461 242.172 64.2952C241.822 64.0367 241.385 63.9075 240.86 63.9075C240.442 63.9075 240.066 64.0025 239.731 64.1926C239.397 64.3826 239.131 64.6677 238.933 65.0478C238.743 65.4204 238.648 65.8803 238.648 66.4277C238.648 66.9751 238.743 67.4389 238.933 67.819C239.131 68.1991 239.397 68.4842 239.731 68.6743C240.066 68.8644 240.442 68.9594 240.86 68.9594C241.385 68.9594 241.822 68.834 242.172 68.5831C242.529 68.3246 242.761 67.9673 242.867 67.5111H243.723C243.578 68.1497 243.255 68.6629 242.753 69.0506C242.252 69.4384 241.621 69.6322 240.86 69.6322C240.275 69.6322 239.754 69.503 239.298 69.2445C238.842 68.9784 238.485 68.6059 238.226 68.1269C237.968 67.6404 237.838 67.074 237.838 66.4277ZM248.162 63.2004C248.633 63.2004 249.055 63.2992 249.428 63.4969C249.808 63.6946 250.105 63.9987 250.317 64.4092C250.538 64.8122 250.648 65.3063 250.648 65.8917V69.541H249.861V65.983C249.861 65.3063 249.69 64.7894 249.348 64.432C249.014 64.0747 248.554 63.896 247.968 63.896C247.368 63.896 246.889 64.0861 246.531 64.4662C246.174 64.8464 245.995 65.4052 245.995 66.1426V69.541H245.197V61.1021H245.995V64.375C246.193 64.0025 246.482 63.7136 246.862 63.5083C247.25 63.303 247.683 63.2004 248.162 63.2004ZM254.558 69.6322C253.843 69.6322 253.258 69.4688 252.801 69.1419C252.353 68.8074 252.102 68.355 252.049 67.7848H252.87C252.908 68.1345 253.071 68.4196 253.36 68.6401C253.657 68.853 254.052 68.9594 254.546 68.9594C254.98 68.9594 255.318 68.8568 255.561 68.6515C255.812 68.4462 255.937 68.1915 255.937 67.8874C255.937 67.6746 255.869 67.4997 255.732 67.3629C255.595 67.226 255.42 67.1196 255.208 67.0435C255.002 66.9599 254.721 66.8725 254.364 66.7813C253.9 66.6596 253.524 66.538 253.235 66.4163C252.946 66.2947 252.699 66.116 252.493 65.8803C252.296 65.6371 252.197 65.3139 252.197 64.911C252.197 64.6069 252.288 64.3256 252.471 64.0671C252.653 63.8086 252.912 63.6033 253.246 63.4513C253.581 63.2992 253.961 63.2232 254.387 63.2232C255.056 63.2232 255.595 63.3943 256.006 63.7364C256.416 64.0709 256.637 64.5347 256.667 65.1277H255.869C255.846 64.7627 255.702 64.47 255.436 64.2496C255.177 64.0215 254.82 63.9075 254.364 63.9075C253.961 63.9075 253.634 64.0025 253.383 64.1926C253.132 64.3826 253.007 64.6183 253.007 64.8996C253.007 65.1429 253.079 65.3444 253.223 65.504C253.375 65.6561 253.562 65.7777 253.782 65.8689C254.003 65.9526 254.299 66.0476 254.672 66.154C255.12 66.2757 255.478 66.3935 255.744 66.5076C256.01 66.6216 256.238 66.7889 256.428 67.0093C256.618 67.2298 256.717 67.5225 256.724 67.8874C256.724 68.222 256.633 68.5223 256.451 68.7884C256.268 69.0468 256.013 69.2521 255.687 69.4042C255.36 69.5562 254.983 69.6322 254.558 69.6322Z" fill="#FEECA8"/>
<path fill-rule="evenodd" clip-rule="evenodd" d="M336.055 219.357C341.974 219.357 346.773 214.558 346.773 208.639C346.773 202.719 341.974 197.92 336.055 197.92C330.135 197.92 325.336 202.719 325.336 208.639C325.336 214.558 330.135 219.357 336.055 219.357ZM336.612 200.834C336.759 200.975 336.842 201.166 336.842 201.366V202.62H337.877C338.196 202.62 338.51 202.7 338.787 202.851L340.141 203.59C340.181 203.611 340.226 203.623 340.271 203.623H342.617C342.826 203.623 343.026 203.702 343.174 203.843C343.321 203.984 343.404 204.176 343.404 204.375C343.404 204.575 343.321 204.766 343.174 204.907C343.026 205.048 342.826 205.128 342.617 205.128H342.169L344.385 209.835C344.45 209.974 344.47 210.129 344.441 210.279C344.412 210.429 344.336 210.568 344.223 210.676L343.667 210.144L344.222 210.677L344.221 210.679L344.219 210.681L344.213 210.687L344.206 210.692L344.196 210.702L344.149 210.742C343.928 210.919 343.686 211.07 343.428 211.193C342.938 211.428 342.228 211.649 341.304 211.649C340.569 211.657 339.842 211.501 339.181 211.193C338.923 211.07 338.681 210.919 338.46 210.742L338.413 210.702L338.396 210.687L338.39 210.681L338.388 210.679L338.386 210.677V210.676C338.273 210.568 338.197 210.429 338.168 210.279C338.139 210.129 338.159 209.974 338.224 209.835L340.441 205.128H340.271C339.951 205.128 339.637 205.048 339.36 204.896L338.006 204.158C337.966 204.136 337.921 204.125 337.876 204.125H336.842V213.655H339.467C339.676 213.655 339.876 213.734 340.024 213.875C340.172 214.017 340.255 214.208 340.255 214.408C340.255 214.607 340.172 214.798 340.024 214.94C339.876 215.081 339.676 215.16 339.467 215.16H332.643C332.434 215.16 332.234 215.081 332.086 214.94C331.938 214.798 331.856 214.607 331.856 214.408C331.856 214.208 331.938 214.017 332.086 213.875C332.234 213.734 332.434 213.655 332.643 213.655H335.268V204.125H334.235C334.189 204.125 334.144 204.136 334.104 204.158L332.751 204.897C332.473 205.047 332.159 205.128 331.839 205.128H331.669L333.886 209.835C333.951 209.974 333.971 210.129 333.942 210.279C333.913 210.429 333.837 210.568 333.724 210.676L333.168 210.144L333.723 210.677L333.722 210.679L333.72 210.681L333.714 210.687L333.697 210.702L333.65 210.742C333.429 210.919 333.187 211.07 332.93 211.193C332.439 211.428 331.73 211.649 330.806 211.649C330.07 211.657 329.343 211.501 328.682 211.193C328.424 211.07 328.182 210.919 327.961 210.742L327.914 210.702L327.897 210.687L327.891 210.681L327.889 210.679L327.887 210.677V210.676C327.774 210.568 327.698 210.429 327.669 210.279C327.64 210.129 327.66 209.974 327.725 209.835L329.943 205.128H329.493C329.284 205.128 329.084 205.048 328.936 204.907C328.789 204.766 328.706 204.575 328.706 204.375C328.706 204.176 328.789 203.984 328.936 203.843C329.084 203.702 329.284 203.623 329.493 203.623H331.839C331.885 203.623 331.93 203.612 331.97 203.59L333.322 202.85C333.6 202.7 333.914 202.62 334.235 202.62H335.268V201.366C335.268 201.166 335.351 200.975 335.498 200.834C335.646 200.693 335.846 200.613 336.055 200.613C336.264 200.613 336.464 200.693 336.612 200.834ZM330.806 210.144C330.189 210.144 329.735 210.005 329.436 209.87L330.806 206.961L332.176 209.87C331.877 210.005 331.422 210.144 330.806 210.144ZM341.304 210.144C340.688 210.144 340.234 210.005 339.934 209.87L341.304 206.961L342.675 209.87C342.375 210.005 341.921 210.144 341.304 210.144Z" fill="#66CCFF"/>
<path fill-rule="evenodd" clip-rule="evenodd" d="M348.506 171.997C348.763 171.74 349.111 171.596 349.475 171.596H357.697C358.061 171.596 358.409 171.74 358.666 171.997C358.923 172.254 359.068 172.603 359.068 172.966V175.707C359.068 176.071 358.923 176.419 358.666 176.676C358.409 176.933 358.061 177.078 357.697 177.078H350.845V179.818C354.48 179.818 357.966 181.262 360.536 183.832C363.106 186.402 364.55 189.888 364.55 193.523V196.264H367.291C368.744 196.264 370.139 196.841 371.167 197.869C372.195 198.897 372.772 200.292 372.772 201.746V212.709C372.772 213.436 372.484 214.133 371.97 214.647C371.456 215.161 370.758 215.45 370.031 215.45H357.697C357.334 215.45 356.985 215.306 356.728 215.049C356.471 214.792 356.327 214.443 356.327 214.08V208.598C356.327 208.234 356.183 207.886 355.926 207.629C355.669 207.372 355.32 207.227 354.956 207.227H350.469C349.043 200.757 343.752 195.736 337.141 194.709V193.523C337.141 190.364 338.232 187.302 340.23 184.855C342.228 182.408 345.009 180.725 348.104 180.092V172.966C348.104 172.603 348.249 172.254 348.506 171.997ZM364.148 202.147C363.891 201.89 363.543 201.746 363.179 201.746C362.816 201.746 362.467 201.89 362.21 202.147C361.953 202.404 361.809 202.753 361.809 203.116V208.598C361.809 208.961 361.953 209.31 362.21 209.567C362.467 209.824 362.816 209.968 363.179 209.968C363.543 209.968 363.891 209.824 364.148 209.567C364.405 209.31 364.55 208.961 364.55 208.598V203.116C364.55 202.753 364.405 202.404 364.148 202.147ZM348.104 197.634V192.152C348.104 191.789 347.96 191.44 347.703 191.183C347.446 190.926 347.097 190.782 346.734 190.782C346.37 190.782 346.022 190.926 345.765 191.183C345.508 191.44 345.363 191.789 345.363 192.152V197.634C345.363 197.998 345.508 198.346 345.765 198.603C346.022 198.86 346.37 199.005 346.734 199.005C347.097 199.005 347.446 198.86 347.703 198.603C347.96 198.346 348.104 197.998 348.104 197.634ZM355.926 191.183C355.669 190.926 355.32 190.782 354.956 190.782C354.593 190.782 354.244 190.926 353.987 191.183C353.73 191.44 353.586 191.789 353.586 192.152V197.634C353.586 197.998 353.73 198.346 353.987 198.603C354.244 198.86 354.593 199.005 354.956 199.005C355.32 199.005 355.669 198.86 355.926 198.603C356.183 198.346 356.327 197.998 356.327 197.634V192.152C356.327 191.789 356.183 191.44 355.926 191.183Z" fill="#66CCFF"/>
<path d="M321.311 233.467L319.338 230.137H317.867V233.467H317.069V225.495H319.464C320.353 225.495 321.026 225.708 321.482 226.134C321.946 226.56 322.178 227.119 322.178 227.81C322.178 228.388 322.011 228.882 321.676 229.293C321.349 229.696 320.863 229.958 320.216 230.08L322.269 233.467H321.311ZM317.867 229.487H319.475C320.099 229.487 320.566 229.335 320.878 229.031C321.197 228.727 321.357 228.32 321.357 227.81C321.357 227.286 321.205 226.883 320.901 226.602C320.597 226.313 320.118 226.168 319.464 226.168H317.867V229.487ZM329.396 230.034C329.396 230.308 329.388 230.517 329.373 230.661H324.207C324.23 231.133 324.344 231.536 324.549 231.87C324.754 232.205 325.024 232.459 325.359 232.634C325.693 232.802 326.058 232.885 326.453 232.885C326.97 232.885 327.404 232.76 327.753 232.509C328.111 232.258 328.346 231.92 328.46 231.494H329.304C329.152 232.102 328.825 232.6 328.324 232.988C327.829 233.368 327.206 233.558 326.453 233.558C325.868 233.558 325.343 233.429 324.88 233.17C324.416 232.904 324.051 232.532 323.785 232.053C323.526 231.566 323.397 231 323.397 230.354C323.397 229.707 323.526 229.141 323.785 228.654C324.043 228.168 324.404 227.795 324.868 227.537C325.332 227.278 325.86 227.149 326.453 227.149C327.046 227.149 327.563 227.278 328.004 227.537C328.453 227.795 328.795 228.145 329.031 228.586C329.274 229.019 329.396 229.502 329.396 230.034ZM328.586 230.011C328.594 229.548 328.498 229.152 328.301 228.825C328.111 228.498 327.848 228.251 327.514 228.084C327.179 227.917 326.815 227.833 326.419 227.833C325.826 227.833 325.321 228.023 324.902 228.403C324.484 228.784 324.252 229.32 324.207 230.011H328.586ZM333.468 227.149C334.053 227.149 334.562 227.286 334.996 227.56C335.429 227.833 335.741 228.179 335.931 228.597V227.24H336.729V233.626C336.729 234.197 336.604 234.702 336.353 235.143C336.11 235.584 335.767 235.922 335.326 236.158C334.886 236.401 334.384 236.523 333.821 236.523C333.023 236.523 332.358 236.333 331.825 235.953C331.301 235.573 330.974 235.056 330.845 234.402H331.632C331.768 234.835 332.027 235.181 332.407 235.44C332.795 235.698 333.266 235.827 333.821 235.827C334.224 235.827 334.585 235.74 334.905 235.565C335.224 235.398 335.475 235.147 335.657 234.812C335.84 234.478 335.931 234.083 335.931 233.626V232.087C335.733 232.513 335.418 232.866 334.984 233.147C334.559 233.421 334.053 233.558 333.468 233.558C332.897 233.558 332.384 233.425 331.928 233.159C331.48 232.893 331.126 232.516 330.868 232.03C330.617 231.543 330.491 230.981 330.491 230.342C330.491 229.703 330.617 229.145 330.868 228.666C331.126 228.179 331.48 227.807 331.928 227.548C332.384 227.282 332.897 227.149 333.468 227.149ZM335.931 230.354C335.931 229.852 335.828 229.411 335.623 229.031C335.418 228.651 335.136 228.358 334.779 228.153C334.429 227.947 334.042 227.845 333.616 227.845C333.175 227.845 332.78 227.943 332.43 228.141C332.08 228.339 331.803 228.628 331.597 229.008C331.4 229.38 331.301 229.825 331.301 230.342C331.301 230.851 331.4 231.3 331.597 231.688C331.803 232.068 332.08 232.361 332.43 232.566C332.78 232.764 333.175 232.862 333.616 232.862C334.042 232.862 334.429 232.76 334.779 232.554C335.136 232.349 335.418 232.057 335.623 231.676C335.828 231.296 335.931 230.855 335.931 230.354ZM343.946 227.24V233.467H343.147V232.372C342.965 232.76 342.684 233.056 342.303 233.262C341.923 233.467 341.498 233.569 341.026 233.569C340.281 233.569 339.673 233.341 339.202 232.885C338.73 232.421 338.495 231.752 338.495 230.878V227.24H339.281V230.787C339.281 231.463 339.449 231.98 339.783 232.338C340.125 232.695 340.589 232.874 341.174 232.874C341.775 232.874 342.254 232.684 342.611 232.304C342.969 231.923 343.147 231.365 343.147 230.627V227.24H343.946ZM346.566 225.028V233.467H345.768V225.028H346.566ZM348.009 230.342C348.009 229.703 348.135 229.145 348.386 228.666C348.644 228.179 348.998 227.807 349.446 227.548C349.902 227.282 350.415 227.149 350.986 227.149C351.579 227.149 352.088 227.286 352.514 227.56C352.947 227.833 353.259 228.183 353.449 228.609V227.24H354.247V233.467H353.449V232.087C353.251 232.513 352.936 232.866 352.502 233.147C352.077 233.421 351.567 233.558 350.974 233.558C350.412 233.558 349.902 233.425 349.446 233.159C348.998 232.893 348.644 232.516 348.386 232.03C348.135 231.543 348.009 230.981 348.009 230.342ZM353.449 230.354C353.449 229.852 353.346 229.411 353.141 229.031C352.936 228.651 352.654 228.358 352.297 228.153C351.947 227.947 351.56 227.845 351.134 227.845C350.693 227.845 350.298 227.943 349.948 228.141C349.598 228.339 349.321 228.628 349.115 229.008C348.918 229.38 348.819 229.825 348.819 230.342C348.819 230.851 348.918 231.3 349.115 231.688C349.321 232.068 349.598 232.361 349.948 232.566C350.298 232.764 350.693 232.862 351.134 232.862C351.56 232.862 351.947 232.76 352.297 232.554C352.654 232.349 352.936 232.057 353.141 231.676C353.346 231.296 353.449 230.855 353.449 230.354ZM357.107 227.913V231.779C357.107 232.159 357.18 232.421 357.324 232.566C357.468 232.71 357.723 232.783 358.088 232.783H358.818V233.467H357.963C357.4 233.467 356.982 233.338 356.708 233.079C356.435 232.813 356.298 232.38 356.298 231.779V227.913H355.431V227.24H356.298V225.678H357.107V227.24H358.818V227.913H357.107ZM362.86 233.558C362.275 233.558 361.746 233.429 361.275 233.17C360.811 232.904 360.442 232.532 360.169 232.053C359.903 231.566 359.77 231 359.77 230.354C359.77 229.707 359.906 229.145 360.18 228.666C360.454 228.179 360.826 227.807 361.298 227.548C361.769 227.282 362.297 227.149 362.883 227.149C363.468 227.149 363.997 227.282 364.468 227.548C364.947 227.807 365.32 228.179 365.586 228.666C365.859 229.145 365.996 229.707 365.996 230.354C365.996 230.992 365.859 231.555 365.586 232.041C365.312 232.528 364.936 232.904 364.457 233.17C363.978 233.429 363.445 233.558 362.86 233.558ZM362.86 232.862C363.271 232.862 363.651 232.771 364 232.589C364.35 232.399 364.631 232.117 364.844 231.745C365.065 231.365 365.175 230.901 365.175 230.354C365.175 229.806 365.069 229.346 364.856 228.974C364.643 228.593 364.362 228.312 364.012 228.13C363.662 227.94 363.282 227.845 362.871 227.845C362.461 227.845 362.081 227.94 361.731 228.13C361.381 228.312 361.1 228.593 360.887 228.974C360.682 229.346 360.579 229.806 360.579 230.354C360.579 230.901 360.682 231.365 360.887 231.745C361.1 232.117 361.378 232.399 361.72 232.589C362.069 232.771 362.45 232.862 362.86 232.862ZM368.25 228.346C368.424 227.959 368.691 227.658 369.048 227.445C369.413 227.233 369.858 227.126 370.382 227.126V227.959H370.165C369.588 227.959 369.124 228.115 368.774 228.426C368.424 228.738 368.25 229.259 368.25 229.989V233.467H367.451V227.24H368.25V228.346ZM373.727 233.558C373.012 233.558 372.427 233.395 371.971 233.068C371.522 232.733 371.271 232.281 371.218 231.711H372.039C372.077 232.06 372.241 232.345 372.53 232.566C372.826 232.779 373.221 232.885 373.716 232.885C374.149 232.885 374.487 232.783 374.731 232.577C374.981 232.372 375.107 232.117 375.107 231.813C375.107 231.6 375.038 231.425 374.902 231.289C374.765 231.152 374.59 231.045 374.377 230.969C374.172 230.886 373.89 230.798 373.533 230.707C373.069 230.585 372.693 230.464 372.404 230.342C372.115 230.22 371.868 230.042 371.663 229.806C371.465 229.563 371.366 229.24 371.366 228.837C371.366 228.533 371.458 228.251 371.64 227.993C371.823 227.734 372.081 227.529 372.416 227.377C372.75 227.225 373.13 227.149 373.556 227.149C374.225 227.149 374.765 227.32 375.175 227.662C375.586 227.997 375.806 228.46 375.837 229.053H375.038C375.016 228.689 374.871 228.396 374.605 228.175C374.347 227.947 373.989 227.833 373.533 227.833C373.13 227.833 372.803 227.928 372.552 228.118C372.301 228.308 372.176 228.544 372.176 228.825C372.176 229.069 372.248 229.27 372.393 229.43C372.545 229.582 372.731 229.703 372.951 229.795C373.172 229.878 373.468 229.973 373.841 230.08C374.29 230.201 374.647 230.319 374.913 230.433C375.179 230.547 375.407 230.715 375.597 230.935C375.787 231.156 375.886 231.448 375.894 231.813C375.894 232.148 375.802 232.448 375.62 232.714C375.438 232.973 375.183 233.178 374.856 233.33C374.529 233.482 374.153 233.558 373.727 233.558Z" fill="#FEECA8"/>
<path d="M182.32 113.901C182.32 112.152 183.738 110.734 185.487 110.734H216.246C217.995 110.734 219.413 112.152 219.413 113.901V155.767C219.413 157.517 217.995 158.934 216.246 158.934H185.487C183.738 158.934 182.32 157.517 182.32 155.767V113.901Z" fill="white"/>
<mask id="mask0_11131_40586" style="mask-type:alpha" maskUnits="userSpaceOnUse" x="182" y="109" width="38" height="49">
<path d="M182.32 112.751C182.32 111.002 183.738 109.584 185.487 109.584H216.246C217.995 109.584 219.413 111.002 219.413 112.751V154.617C219.413 156.366 217.995 157.784 216.246 157.784H185.487C183.738 157.784 182.32 156.366 182.32 154.617V112.751Z" fill="white"/>
</mask>
<g mask="url(#mask0_11131_40586)">
<rect x="182.32" y="109.584" width="40.8577" height="4.9724" fill="#C0933E"/>
<path d="M200.875 121.879H213.83" stroke="#C0933E" stroke-width="0.670822" stroke-linecap="round" stroke-linejoin="round"/>
<path d="M200.875 126.459H213.83" stroke="#C0933E" stroke-width="0.670822" stroke-linecap="round" stroke-linejoin="round"/>
<path d="M200.875 135.617H213.83" stroke="#C0933E" stroke-width="0.670822" stroke-linecap="round" stroke-linejoin="round"/>
<path d="M200.875 131.037H213.83" stroke="#C0933E" stroke-width="0.670822" stroke-linecap="round" stroke-linejoin="round"/>
</g>
<path d="M169.813 126.693C169.813 126.915 169.997 127.096 170.224 127.096C170.245 127.096 170.264 127.087 170.284 127.084L170.284 127.096L180.045 127.096C180.272 127.096 180.456 126.915 180.456 126.693L180.456 117.133L180.444 117.133C180.447 117.113 180.456 117.095 180.456 117.074C180.456 116.852 180.272 116.671 180.045 116.671C174.419 116.728 169.871 121.183 169.813 126.693Z" fill="#FEECA8"/>
<path d="M182.414 119.001C182.187 119.001 182.002 119.181 182.002 119.404L182.002 128.192C182.002 128.299 181.959 128.401 181.882 128.477C181.804 128.552 181.7 128.595 181.591 128.595L172.651 128.595L172.651 128.607C172.631 128.604 172.612 128.595 172.591 128.595C172.364 128.595 172.18 128.775 172.18 128.998C172.18 129.008 172.185 129.016 172.185 129.025L172.182 129.025C172.182 129.061 172.18 129.096 172.18 129.132C172.18 134.728 176.811 139.264 182.524 139.264C188.236 139.264 192.867 134.728 192.867 129.132C192.867 123.537 188.236 119.001 182.524 119.001C182.491 119.001 182.458 119.003 182.425 119.003C182.421 119.003 182.418 119.001 182.414 119.001Z" fill="#C0933E"/>
<path d="M185.406 151.73C185.406 151.179 185.853 150.732 186.404 150.732H188.396C188.947 150.732 189.394 151.179 189.394 151.73V155.092C189.394 155.643 188.947 156.089 188.396 156.089H186.404C185.853 156.089 185.406 155.643 185.406 155.092V151.73Z" fill="#FEECA8"/>
<path d="M189.898 148.009C189.898 147.458 190.345 147.012 190.896 147.012H192.889C193.439 147.012 193.886 147.458 193.886 148.009V155.091C193.886 155.642 193.439 156.089 192.889 156.089H190.896C190.345 156.089 189.898 155.642 189.898 155.091V148.009Z" fill="#C0933E"/>
<path d="M194.398 146.943C194.398 146.392 194.845 145.945 195.396 145.945H197.389C197.939 145.945 198.386 146.392 198.386 146.943V155.093C198.386 155.643 197.939 156.09 197.389 156.09H195.396C194.845 156.09 194.398 155.643 194.398 155.093V146.943Z" fill="#C0933E"/>
<path d="M198.891 153.554C198.891 153.003 199.337 152.557 199.888 152.557H201.881C202.432 152.557 202.878 153.003 202.878 153.554V155.092C202.878 155.643 202.432 156.089 201.881 156.089H199.888C199.337 156.089 198.891 155.643 198.891 155.092V153.554Z" fill="#FEECA8"/>
<path d="M203.383 148.009C203.383 147.458 203.829 147.012 204.38 147.012H206.373C206.924 147.012 207.37 147.458 207.37 148.009V155.091C207.37 155.642 206.924 156.089 206.373 156.089H204.38C203.829 156.089 203.383 155.642 203.383 155.091V148.009Z" fill="#C0933E"/>
<path d="M207.875 144.011C207.875 143.46 208.322 143.014 208.872 143.014H210.865C211.416 143.014 211.862 143.46 211.862 144.011V155.093C211.862 155.643 211.416 156.09 210.865 156.09H208.872C208.321 156.09 207.875 155.643 207.875 155.093V144.011Z" fill="#C0933E"/>
<path d="M212.375 141.484C212.375 140.933 212.822 140.486 213.372 140.486H215.365C215.916 140.486 216.362 140.933 216.362 141.484V155.092C216.362 155.642 215.916 156.089 215.365 156.089H213.372C212.821 156.089 212.375 155.642 212.375 155.092V141.484Z" fill="#C0933E"/>
<path fill-rule="evenodd" clip-rule="evenodd" d="M224.673 125.931C223.822 129.106 220.622 131.006 217.525 130.176C214.428 129.346 212.607 126.1 213.457 122.926C214.308 119.752 217.508 117.851 220.605 118.681C223.702 119.511 225.523 122.757 224.673 125.931ZM222.047 131.094C220.565 131.801 218.848 132.005 217.156 131.552C213.318 130.523 211.061 126.5 212.115 122.566C213.169 118.632 217.135 116.277 220.973 117.306C224.812 118.334 227.069 122.357 226.015 126.291C225.581 127.911 224.652 129.264 223.443 130.223L227.968 139.084C228.174 139.488 228.019 139.991 227.621 140.206C227.222 140.422 226.732 140.269 226.526 139.865L222.047 131.094Z" fill="#C0933E"/>
<path d="M296.547 45.6373C296.547 42.5595 299.042 40.0645 302.12 40.0645H332.695C335.773 40.0645 338.268 42.5595 338.268 45.6373V61.3672C338.268 64.445 335.773 66.94 332.695 66.94H302.12C299.042 66.94 296.547 64.445 296.547 61.3672V45.6373Z" fill="white"/>
<path fill-rule="evenodd" clip-rule="evenodd" d="M332.695 41.3029H302.12C299.726 41.3029 297.785 43.2434 297.785 45.6373V61.3672C297.785 63.761 299.726 65.7016 302.12 65.7016H332.695C335.089 65.7016 337.029 63.761 337.029 61.3672V45.6373C337.029 43.2434 335.089 41.3029 332.695 41.3029ZM302.12 40.0645C299.042 40.0645 296.547 42.5595 296.547 45.6373V61.3672C296.547 64.445 299.042 66.94 302.12 66.94H332.695C335.773 66.94 338.268 64.445 338.268 61.3672V45.6373C338.268 42.5595 335.773 40.0645 332.695 40.0645H302.12Z" fill="#C0933E"/>
<path fill-rule="evenodd" clip-rule="evenodd" d="M302.375 60.2169C302.375 59.8749 302.652 59.5977 302.994 59.5977H314.479C314.821 59.5977 315.098 59.8749 315.098 60.2169C315.098 60.5588 314.821 60.8361 314.479 60.8361H302.994C302.652 60.8361 302.375 60.5588 302.375 60.2169Z" fill="#C0933E"/>
<path fill-rule="evenodd" clip-rule="evenodd" d="M302.375 56.713C302.375 56.371 302.652 56.0938 302.994 56.0938H314.479C314.821 56.0938 315.098 56.371 315.098 56.713C315.098 57.0549 314.821 57.3322 314.479 57.3322H302.994C302.652 57.3322 302.375 57.0549 302.375 56.713Z" fill="#C0933E"/>
<rect x="322.852" y="43.1211" width="12.2759" height="20.6629" rx="2.01247" fill="#FFF3C4"/>
<rect x="299.781" y="43.1211" width="20.7813" height="10.3444" rx="2.01247" fill="#FFF3C4"/>
<rect x="325.297" y="58.3379" width="1.88213" height="1.88213" rx="0.670822" fill="#C0933E"/>
<rect x="328.055" y="56.9922" width="1.88213" height="3.2265" rx="0.670822" fill="#C0933E"/>
<rect x="330.805" y="55.8496" width="1.88213" height="4.36923" rx="0.670822" fill="#C0933E"/>
<path fill-rule="evenodd" clip-rule="evenodd" d="M316.055 45.1168C316.323 45.3296 316.368 45.7191 316.155 45.9868L313.941 48.7735C313.729 49.0405 313.341 49.0857 313.073 48.8747L312.206 48.1915L309.499 50.4305C309.326 50.5739 309.088 50.612 308.879 50.53L307.519 49.9981L306.241 51.4011C306.011 51.6539 305.619 51.6721 305.366 51.4418C305.113 51.2115 305.095 50.8198 305.326 50.5671L306.891 48.8492C307.063 48.6597 307.335 48.5962 307.574 48.6897L308.991 49.244L311.802 46.9187C312.026 46.7328 312.351 46.7289 312.58 46.9094L313.355 47.5203L315.185 45.2165C315.398 44.9487 315.788 44.9041 316.055 45.1168Z" fill="#C0933E"/>
<rect x="315.094" y="66.0352" width="4.63331" height="4.10998" fill="#C0933E"/>
<path d="M310.609 72.4878C310.609 71.1936 311.658 70.1445 312.953 70.1445H321.878C323.172 70.1445 324.221 71.1936 324.221 72.4878H310.609Z" fill="#C0933E"/>
<path d="M336.267 39.7606H341.358C341.58 39.7606 341.766 39.6865 341.916 39.5383C342.066 39.3906 342.141 39.2073 342.141 38.9886C342.141 38.7698 342.066 38.5863 341.916 38.4381C341.766 38.2904 341.58 38.2165 341.358 38.2165H337.833L336.267 39.7606ZM333.134 39.7606H334.348C334.452 39.7606 334.55 39.7413 334.642 39.7027C334.733 39.6641 334.818 39.6062 334.896 39.529L339.282 35.2442C339.361 35.167 339.4 35.0705 339.4 34.9546C339.4 34.8388 339.361 34.7423 339.282 34.6651L337.912 33.3141C337.833 33.2369 337.735 33.1982 337.618 33.1982C337.5 33.1982 337.403 33.2369 337.324 33.3141L332.977 37.6375C332.899 37.7147 332.84 37.7983 332.801 37.8884C332.762 37.9785 332.742 38.075 332.742 38.1779V39.3746C332.742 39.4775 332.781 39.5676 332.86 39.6448C332.938 39.722 333.029 39.7606 333.134 39.7606ZM329.609 44.0648V32.0402C329.609 31.6156 329.763 31.2519 330.07 30.9493C330.376 30.6472 330.745 30.4961 331.176 30.4961H343.708C344.138 30.4961 344.507 30.6472 344.814 30.9493C345.121 31.2519 345.274 31.6156 345.274 32.0402V41.3047C345.274 41.7293 345.121 42.093 344.814 42.3956C344.507 42.6977 344.138 42.8488 343.708 42.8488H332.742L330.941 44.6245C330.693 44.869 330.409 44.9235 330.089 44.7882C329.769 44.6533 329.609 44.4122 329.609 44.0648Z" fill="#C09933"/>
<path fill-rule="evenodd" clip-rule="evenodd" d="M325.086 50.9844C325.086 50.6425 325.363 50.3652 325.705 50.3652H332.289C332.631 50.3652 332.908 50.6425 332.908 50.9844C332.908 51.3264 332.631 51.6036 332.289 51.6036H325.705C325.363 51.6036 325.086 51.3264 325.086 50.9844Z" fill="#C0933E"/>
<path d="M325.703 47.4785H332.287" stroke="#C0933E" stroke-width="1.34164" stroke-linecap="round"/>
<rect x="107.65" y="32.809" width="39.7259" height="29.3994" rx="5.70199" transform="rotate(90 107.65 32.809)" fill="white" stroke="#C0933E" stroke-width="2.01247"/>
<path d="M84.4647 38.4961C82.5251 38.4961 80.9531 40.1105 80.9531 42.1026C80.9531 44.0946 82.5251 45.709 84.4647 45.709C86.4043 45.709 87.9762 44.0946 87.9762 42.1026C87.9762 40.1105 86.4043 38.4961 84.4647 38.4961ZM84.4647 44.1312C84.2178 44.1312 84.0257 43.934 84.0257 43.6804C84.0257 43.4268 84.2054 43.2296 84.4647 43.2296C84.6992 43.2296 84.9036 43.4268 84.9036 43.6804C84.9036 43.934 84.6992 44.1312 84.4647 44.1312ZM85.4125 42.1307L84.7939 42.5252V42.5534C84.7939 42.7365 84.643 42.8915 84.4647 42.8915C84.2864 42.8915 84.1355 42.7365 84.1355 42.5534V42.328C84.1355 42.2153 84.1903 42.1026 84.3001 42.0321L85.0819 41.5531C85.178 41.4968 85.2328 41.3982 85.2328 41.2855C85.2328 41.1164 85.0833 40.9755 84.9187 40.9755H84.2178C84.0408 40.9755 83.916 41.1164 83.916 41.2855C83.916 41.4686 83.7651 41.6236 83.5868 41.6236C83.4085 41.6236 83.2576 41.4686 83.2576 41.2855C83.2576 40.736 83.6828 40.2993 84.2054 40.2993H84.9064C85.466 40.2993 85.8912 40.736 85.8912 41.2855C85.8912 41.6236 85.7129 41.9476 85.4125 42.1307Z" fill="#C0933E"/>
<path d="M84.4647 48.3457C82.5251 48.3457 80.9531 49.9602 80.9531 51.9522C80.9531 53.9442 82.5251 55.5586 84.4647 55.5586C86.4043 55.5586 87.9762 53.9442 87.9762 51.9522C87.9762 49.9602 86.4043 48.3457 84.4647 48.3457ZM84.4647 53.9808C84.2178 53.9808 84.0257 53.7836 84.0257 53.53C84.0257 53.2764 84.2054 53.0792 84.4647 53.0792C84.6992 53.0792 84.9036 53.2764 84.9036 53.53C84.9036 53.7836 84.6992 53.9808 84.4647 53.9808ZM85.4125 51.9803L84.7939 52.3748V52.403C84.7939 52.5861 84.643 52.7411 84.4647 52.7411C84.2864 52.7411 84.1355 52.5861 84.1355 52.403V52.1776C84.1355 52.0649 84.1903 51.9522 84.3001 51.8817L85.0819 51.4027C85.178 51.3464 85.2328 51.2478 85.2328 51.1351C85.2328 50.966 85.0833 50.8251 84.9187 50.8251H84.2178C84.0408 50.8251 83.916 50.966 83.916 51.1351C83.916 51.3182 83.7651 51.4732 83.5868 51.4732C83.4085 51.4732 83.2576 51.3182 83.2576 51.1351C83.2576 50.5857 83.6828 50.1489 84.2054 50.1489H84.9064C85.466 50.1489 85.8912 50.5857 85.8912 51.1351C85.8912 51.4732 85.7129 51.7972 85.4125 51.9803Z" fill="#C0933E"/>
<path fill-rule="evenodd" clip-rule="evenodd" d="M89.8594 61.8018C89.8594 61.4043 90.1816 61.082 90.5791 61.082H100.794C101.192 61.082 101.514 61.4043 101.514 61.8018C101.514 62.1993 101.192 62.5215 100.794 62.5215H90.5791C90.1816 62.5215 89.8594 62.1993 89.8594 61.8018Z" fill="#C0933E"/>
<path d="M84.4647 58.1953C82.5251 58.1953 80.9531 59.8098 80.9531 61.8018C80.9531 63.7938 82.5251 65.4082 84.4647 65.4082C86.4043 65.4082 87.9762 63.7938 87.9762 61.8018C87.9762 59.8098 86.4043 58.1953 84.4647 58.1953ZM84.4647 63.8304C84.2178 63.8304 84.0257 63.6332 84.0257 63.3796C84.0257 63.126 84.2054 62.9288 84.4647 62.9288C84.6992 62.9288 84.9036 63.126 84.9036 63.3796C84.9036 63.6332 84.6992 63.8304 84.4647 63.8304ZM85.4125 61.8299L84.7939 62.2244V62.2526C84.7939 62.4357 84.643 62.5907 84.4647 62.5907C84.2864 62.5907 84.1355 62.4357 84.1355 62.2526V62.0272C84.1355 61.9145 84.1903 61.8018 84.3001 61.7313L85.0819 61.2524C85.178 61.196 85.2328 61.0974 85.2328 60.9847C85.2328 60.8156 85.0833 60.6748 84.9187 60.6748H84.2178C84.0408 60.6748 83.916 60.8156 83.916 60.9847C83.916 61.1678 83.7651 61.3228 83.5868 61.3228C83.4085 61.3228 83.2576 61.1678 83.2576 60.9847C83.2576 60.4353 83.6828 59.9985 84.2054 59.9985H84.9064C85.466 59.9985 85.8912 60.4353 85.8912 60.9847C85.8912 61.3228 85.7129 61.6468 85.4125 61.8299Z" fill="#C0933E"/>
<path fill-rule="evenodd" clip-rule="evenodd" d="M89.8594 42.1026C89.8594 41.7051 90.1816 41.3828 90.5791 41.3828H100.794C101.192 41.3828 101.514 41.7051 101.514 42.1026C101.514 42.5001 101.192 42.8223 100.794 42.8223H90.5791C90.1816 42.8223 89.8594 42.5001 89.8594 42.1026Z" fill="#C0933E"/>
<path fill-rule="evenodd" clip-rule="evenodd" d="M89.8594 51.9502C89.8594 51.5527 90.1816 51.2305 90.5791 51.2305H100.794C101.192 51.2305 101.514 51.5527 101.514 51.9502C101.514 52.3477 101.192 52.67 100.794 52.67H90.5791C90.1816 52.67 89.8594 52.3477 89.8594 51.9502Z" fill="#C0933E"/>
<path d="M110.515 75.6039H103.038C101.65 75.6039 101.662 75.8073 100.047 74.7435C98.4317 73.6798 100.72 72.1624 102.066 71.5366C100.894 71.5366 98.5663 70.9265 98.6261 68.4861C98.6859 66.0457 102.091 66.7393 103.785 67.3911C103.536 65.905 103.606 62.8545 105.879 62.5416C108.152 62.2287 109.02 65.6442 109.169 67.3911C108.945 64.6535 111.936 63.7149 112.908 65.0446C113.711 66.1429 112.014 69.8563 111.399 70.8948C112.024 70.4619 113.861 69.9884 114.478 71.5366C115.076 73.0384 112.085 74.8739 110.515 75.6039Z" fill="#FCE9A7"/>
<circle cx="146.939" cy="148.787" r="3.46237" fill="#FEECA8"/>
<circle cx="146.939" cy="123.63" r="3.46237" fill="#FEECA8"/>
<circle cx="146.939" cy="46.2827" r="3.46237" fill="#FEECA8"/>
<circle cx="89.853" cy="86.4018" r="3.46237" fill="#FEECA8"/>
<circle cx="176.455" cy="36.2026" r="3.46237" fill="#FEECA8"/>
<circle cx="234.814" cy="148.087" r="3.46237" fill="#FEECA8"/>
<circle cx="291.83" cy="98.476" r="3.46237" fill="#FEECA8"/>
<circle cx="351.283" cy="73.6069" r="3.46237" fill="#FEECA8"/>
<circle cx="351.283" cy="147.986" r="3.46237" fill="#FEECA8"/>
<circle cx="351.283" cy="248.07" r="3.46237" fill="#FEECA8"/>
<circle cx="324.415" cy="248.07" r="3.46237" fill="#FEECA8"/>
<circle cx="264.33" cy="248.07" r="3.46237" fill="#FEECA8"/>
<circle cx="89.2436" cy="248.07" r="3.46237" fill="#FEECA8"/>
<circle cx="116.751" cy="172.937" r="3.46237" fill="#FEECA8"/>
<circle cx="176.455" cy="147.554" r="3.46237" fill="#FEECA8"/>
<circle cx="177.009" cy="200.718" r="3.46237" fill="#FEECA8"/>
<circle cx="148.275" cy="172.937" r="3.46237" fill="#FEECA8"/>
<circle cx="234.814" cy="171.595" r="3.46237" fill="#FEECA8"/>
<circle cx="291.83" cy="155.472" r="3.46237" fill="#FEECA8"/>
<circle cx="317.259" cy="148.546" r="3.46237" fill="#FEECA8"/>
<circle cx="350.314" cy="98.476" r="3.46237" fill="#FEECA8"/>
<circle cx="205.662" cy="85.9864" r="2.99028" fill="#66CCFF" fill-opacity="0.2"/>
<circle cx="214.326" cy="85.9864" r="2.99028" fill="#66CCFF" fill-opacity="0.6"/>
<circle cx="222.99" cy="85.9864" r="2.99028" fill="#66CCFF"/>
<rect x="250.158" y="229.198" width="37.3541" height="27.6145" rx="5.70199" transform="rotate(90 250.158 229.198)" fill="white" stroke="#C0933E" stroke-width="2.01247"/>
<path fill-rule="evenodd" clip-rule="evenodd" d="M233.445 238.87C233.445 238.495 233.749 238.191 234.124 238.191H243.759C244.134 238.191 244.438 238.495 244.438 238.87C244.438 239.245 244.134 239.549 243.759 239.549H234.124C233.749 239.549 233.445 239.245 233.445 238.87Z" fill="#C0933E"/>
<path fill-rule="evenodd" clip-rule="evenodd" d="M233.445 245.245C233.445 244.87 233.749 244.566 234.124 244.566H243.759C244.134 244.566 244.438 244.87 244.438 245.245C244.438 245.62 244.134 245.924 243.759 245.924H234.124C233.749 245.924 233.445 245.62 233.445 245.245Z" fill="#C0933E"/>
<path fill-rule="evenodd" clip-rule="evenodd" d="M233.445 251.618C233.445 251.243 233.749 250.939 234.124 250.939H243.759C244.134 250.939 244.438 251.243 244.438 251.618C244.438 251.993 244.134 252.297 243.759 252.297H234.124C233.749 252.297 233.445 251.993 233.445 251.618Z" fill="#C0933E"/>
<path fill-rule="evenodd" clip-rule="evenodd" d="M231.788 236.389C231.977 236.542 232.007 236.82 231.854 237.01L229.474 239.986C229.396 240.083 229.28 240.143 229.155 240.15C229.031 240.156 228.91 240.11 228.822 240.021L226.933 238.12C226.762 237.947 226.762 237.668 226.933 237.495C227.105 237.322 227.382 237.322 227.554 237.495L229.097 239.048L231.171 236.456C231.323 236.266 231.599 236.236 231.788 236.389Z" fill="#C0933E"/>
<path fill-rule="evenodd" clip-rule="evenodd" d="M231.788 243.047C231.977 243.2 232.007 243.478 231.854 243.668L229.474 246.644C229.396 246.741 229.28 246.801 229.155 246.808C229.031 246.815 228.91 246.768 228.822 246.679L226.933 244.778C226.762 244.605 226.762 244.326 226.933 244.153C227.105 243.981 227.382 243.981 227.554 244.153L229.097 245.706L231.171 243.114C231.323 242.924 231.599 242.894 231.788 243.047Z" fill="#C0933E"/>
<path d="M227.392 256.669V254.511C227.392 254.128 227.544 253.761 227.814 253.491C228.085 253.22 228.452 253.068 228.834 253.068C229.217 253.068 229.584 253.22 229.854 253.491C230.125 253.761 230.277 254.128 230.277 254.511V256.669C230.975 256.201 231.431 255.411 231.431 254.511C231.431 253.074 230.271 251.914 228.834 251.914C227.397 251.914 226.237 253.074 226.237 254.511C226.237 255.411 226.693 256.201 227.392 256.669ZM230.565 258.094C230.404 258.013 230.231 257.973 230.052 257.973H229.7V254.511C229.7 254.032 229.313 253.645 228.834 253.645C228.355 253.645 227.969 254.032 227.969 254.511V260.708L225.984 260.292C225.77 260.246 225.545 260.315 225.389 260.471C225.141 260.725 225.141 261.129 225.389 261.383L227.703 263.697C227.922 263.91 228.217 264.032 228.523 264.032H232.043C232.62 264.032 233.104 263.61 233.185 263.039L233.549 260.46C233.618 259.969 233.364 259.485 232.92 259.265L230.565 258.094Z" fill="#C0933E"/>
<path d="M253.155 269.181H247.226C246.125 269.181 246.135 269.342 244.854 268.499C243.573 267.655 245.388 266.452 246.455 265.956C245.526 265.956 243.68 265.472 243.727 263.537C243.775 261.601 246.475 262.151 247.819 262.668C247.621 261.49 247.676 259.071 249.479 258.823C251.282 258.574 251.969 261.283 252.088 262.668C251.91 260.497 254.282 259.753 255.053 260.807C255.69 261.678 254.344 264.623 253.856 265.447C254.352 265.103 255.809 264.728 256.298 265.956C256.772 267.147 254.401 268.602 253.155 269.181Z" fill="#FEECA8"/>
<defs>
<filter id="filter0_d_11131_40586" x="42.9227" y="5.63554" width="324.131" height="284.129" filterUnits="userSpaceOnUse" color-interpolation-filters="sRGB">
<feFlood flood-opacity="0" result="BackgroundImageFix"/>
<feColorMatrix in="SourceAlpha" type="matrix" values="0 0 0 0 0 0 0 0 0 0 0 0 0 0 0 0 0 0 127 0" result="hardAlpha"/>
<feOffset/>
<feGaussianBlur stdDeviation="7.71446"/>
<feComposite in2="hardAlpha" operator="out"/>
<feColorMatrix type="matrix" values="0 0 0 0 0.996078 0 0 0 0 0.92549 0 0 0 0 0.658824 0 0 0 0.6 0"/>
<feBlend mode="normal" in2="BackgroundImageFix" result="effect1_dropShadow_11131_40586"/>
<feBlend mode="normal" in="SourceGraphic" in2="effect1_dropShadow_11131_40586" result="shape"/>
</filter>
</defs>
</svg>
